<svg width="156" height="24" viewBox="0 0 156 24" fill="none" xmlns="http://www.w3.org/2000/svg">
<g clip-path="url(#clip0_1483_407)">
<g clip-path="url(#clip1_1483_407)">
<path d="M23.04 0H0.96C0.429 0 0 0.429 0 0.96V23.04C0 23.571 0.429 24 0.96 24H23.04C23.571 24 24 23.571 24 23.04V0.96C24 0.429 23.571 0 23.04 0ZM20.268 7.005H18.351C16.848 7.005 16.557 7.719 16.557 8.769V11.082H20.145L19.677 14.703H16.557V24H12.816V14.706H9.687V11.082H12.816V8.412C12.816 5.313 14.709 3.624 17.475 3.624C18.801 3.624 19.938 3.723 20.271 3.768V7.005H20.268Z" fill="#335BF5"/>
</g>
<g clip-path="url(#clip2_1483_407)">
<path d="M56.0018 5.84768C52.5968 5.84768 49.8488 8.59568 49.8488 12.0007C49.8488 15.4057 52.5968 18.1537 56.0018 18.1537C59.4068 18.1537 62.1548 15.4057 62.1548 12.0007C62.1548 8.59568 59.4068 5.84768 56.0018 5.84768ZM56.0018 15.9997C53.7998 15.9997 52.0028 14.2027 52.0028 12.0007C52.0028 9.79868 53.7998 8.00168 56.0018 8.00168C58.2038 8.00168 60.0008 9.79868 60.0008 12.0007C60.0008 14.2027 58.2038 15.9997 56.0018 15.9997ZM62.4068 4.16168C61.6118 4.16168 60.9698 4.80368 60.9698 5.59868C60.9698 6.39368 61.6118 7.03568 62.4068 7.03568C63.2018 7.03568 63.8438 6.39668 63.8438 5.59868C63.844 5.4099 63.807 5.22294 63.7349 5.04848C63.6627 4.87403 63.5569 4.71553 63.4234 4.58204C63.2899 4.44855 63.1314 4.34272 62.957 4.27058C62.7825 4.19845 62.5956 4.16144 62.4068 4.16168ZM67.9958 12.0007C67.9958 10.3447 68.0108 8.70368 67.9178 7.05068C67.8248 5.13068 67.3868 3.42668 65.9828 2.02268C64.5758 0.615681 62.8748 0.180681 60.9548 0.0876813C59.2988 -0.00531865 57.6578 0.00968139 56.0048 0.00968139C54.3488 0.00968139 52.7078 -0.00531865 51.0548 0.0876813C49.1348 0.180681 47.4308 0.618681 46.0268 2.02268C44.6198 3.42968 44.1848 5.13068 44.0918 7.05068C43.9988 8.70668 44.0138 10.3477 44.0138 12.0007C44.0138 13.6537 43.9988 15.2977 44.0918 16.9507C44.1848 18.8707 44.6228 20.5747 46.0268 21.9787C47.4338 23.3857 49.1348 23.8207 51.0548 23.9137C52.7108 24.0067 54.3518 23.9917 56.0048 23.9917C57.6608 23.9917 59.3018 24.0067 60.9548 23.9137C62.8748 23.8207 64.5788 23.3827 65.9828 21.9787C67.3898 20.5717 67.8248 18.8707 67.9178 16.9507C68.0138 15.2977 67.9958 13.6567 67.9958 12.0007ZM65.3558 19.0747C65.1368 19.6207 64.8728 20.0287 64.4498 20.4487C64.0268 20.8717 63.6218 21.1357 63.0758 21.3547C61.4978 21.9817 57.7508 21.8407 56.0018 21.8407C54.2528 21.8407 50.5028 21.9817 48.9248 21.3577C48.3788 21.1387 47.9708 20.8747 47.5508 20.4517C47.1278 20.0287 46.8638 19.6237 46.6448 19.0777C46.0208 17.4967 46.1618 13.7497 46.1618 12.0007C46.1618 10.2517 46.0208 6.50168 46.6448 4.92368C46.8638 4.37768 47.1278 3.96968 47.5508 3.54968C47.9738 3.12968 48.3788 2.86268 48.9248 2.64368C50.5028 2.01968 54.2528 2.16068 56.0018 2.16068C57.7508 2.16068 61.5008 2.01968 63.0788 2.64368C63.6248 2.86268 64.0328 3.12668 64.4528 3.54968C64.8758 3.97268 65.1398 4.37768 65.3588 4.92368C65.9828 6.50168 65.8418 10.2517 65.8418 12.0007C65.8418 13.7497 65.9828 17.4967 65.3558 19.0747Z" fill="#E61F5A"/>
</g>
<g clip-path="url(#clip3_1483_407)">
<path d="M112 4.46499C111.119 4.85093 110.159 5.12868 109.171 5.23686C110.197 4.6183 110.966 3.64107 111.332 2.48852C110.369 3.06973 109.314 3.47729 108.215 3.69311C107.755 3.19439 107.199 2.79709 106.581 2.52596C105.964 2.25484 105.298 2.11569 104.625 2.1172C101.902 2.1172 99.7123 4.35681 99.7123 7.10515C99.7123 7.49109 99.7584 7.87703 99.8333 8.24835C95.7565 8.03199 92.1205 6.05552 89.7032 3.02942C89.2628 3.79286 89.0319 4.66213 89.0348 5.54678C89.0348 7.27766 89.902 8.80386 91.2245 9.70146C90.4451 9.67032 89.684 9.45294 89.0031 9.067V9.1284C89.0031 11.5522 90.6914 13.5608 92.9416 14.0228C92.5191 14.1342 92.0845 14.1911 91.648 14.1924C91.3282 14.1924 91.0257 14.1602 90.7203 14.1164C91.3426 16.0928 93.1548 17.5284 95.3128 17.5752C93.6245 18.9172 91.5097 19.7066 89.2134 19.7066C88.8014 19.7066 88.4211 19.692 88.0264 19.6452C90.2045 21.0632 92.7889 21.8819 95.5721 21.8819C104.607 21.8819 109.551 14.2859 109.551 7.69283C109.551 7.47647 109.551 7.26011 109.537 7.04375C110.494 6.33328 111.332 5.45322 112 4.46499Z" fill="#21A6DF"/>
</g>
<g clip-path="url(#clip4_1483_407)">
<path d="M155.47 5.93179C155.333 5.39882 155.066 4.91289 154.695 4.52261C154.324 4.13234 153.862 3.85141 153.355 3.70796C151.488 3.17676 143.988 3.17676 143.988 3.17676C143.988 3.17676 136.487 3.17676 134.621 3.70796C134.114 3.85141 133.652 4.13234 133.281 4.52261C132.909 4.91289 132.642 5.39882 132.506 5.93179C132.157 7.93347 131.988 9.96513 132.001 12.0001C131.988 14.035 132.157 16.0666 132.506 18.0683C132.642 18.6013 132.909 19.0872 133.281 19.4775C133.652 19.8678 134.114 20.1487 134.621 20.2921C136.487 20.8233 143.988 20.8233 143.988 20.8233C143.988 20.8233 151.488 20.8233 153.355 20.2921C153.862 20.1487 154.324 19.8678 154.695 19.4775C155.066 19.0872 155.333 18.6013 155.47 18.0683C155.818 16.0666 155.988 14.035 155.975 12.0001C155.988 9.96513 155.818 7.93347 155.47 5.93179ZM141.59 15.7815V8.21864L147.815 12.0001L141.59 15.7815Z" fill="#E42F08"/>
</g>
</g>
<defs>
<clipPath id="clip0_1483_407">
<rect width="156" height="24" fill="white"/>
</clipPath>
<clipPath id="clip1_1483_407">
<rect width="24" height="24" fill="white"/>
</clipPath>
<clipPath id="clip2_1483_407">
<rect width="24" height="24" fill="white" transform="translate(44)"/>
</clipPath>
<clipPath id="clip3_1483_407">
<rect width="24" height="19.7647" fill="white" transform="translate(88 2.11719)"/>
</clipPath>
<clipPath id="clip4_1483_407">
<rect width="24" height="17.6842" fill="white" transform="translate(132 3.1582)"/>
</clipPath>
</defs>
</svg>
